<svg xmlns="http://www.w3.org/2000/svg" width="57.307" height="29.653" viewBox="0 0 57.307 29.653">
  <g id="Group_1" data-name="Group 1" transform="translate(-789.348 -537.007)">
    <path id="Path_14" data-name="Path 14" d="M49.745,22.9v-1.97a5.925,5.925,0,0,0-5.925-5.925H8.272a5.925,5.925,0,0,0-5.925,5.925h0v15.8A5.925,5.925,0,0,0,8.272,42.66H43.82a5.925,5.925,0,0,0,5.925-5.925v-1.97H53.7a3.94,3.94,0,0,0,3.955-3.94V26.857A3.955,3.955,0,0,0,53.7,22.9Z" transform="translate(788 523)" fill="none" stroke="#fff" stroke-linecap="round" stroke-linejoin="round" stroke-width="2"/>
    <path id="Path_15" data-name="Path 15" d="M41.387,22.9H10.242V34.751H41.387Z" transform="translate(788 523)" fill="none" stroke="#fff" stroke-linecap="round" stroke-linejoin="round" stroke-width="2"/>
  </g>
</svg>
