<svg width="46" height="43" viewBox="0 0 46 43" fill="none" xmlns="http://www.w3.org/2000/svg">
<path d="M39.9972 26.6233C41.533 25.9134 42.8258 24.7672 43.7147 23.3277C44.6035 21.8881 45.049 20.2188 44.9957 18.5278C44.977 17.2617 44.7032 16.0124 44.1907 14.8545C43.6781 13.6967 42.9374 12.6541 42.0128 11.789C41.0882 10.9239 39.9987 10.2542 38.8093 9.81972C37.62 9.38529 36.3552 9.19511 35.0907 9.26056C33.9741 7.01318 32.2492 5.12427 30.1122 3.8087C27.9752 2.49312 25.5118 1.80369 23.0024 1.81882C19.6411 1.77372 16.3892 3.01215 13.9093 5.28169C11.4295 7.55122 9.90856 10.681 9.65643 14.0331C8.6278 13.807 7.56182 13.8118 6.5353 14.0474C5.50878 14.2829 4.54729 14.7432 3.72015 15.3952C2.89301 16.0471 2.22081 16.8745 1.75199 17.8176C1.28318 18.7607 1.02944 19.7961 1.00905 20.849C0.928549 22.358 1.38706 23.8464 2.30269 25.0484C3.21833 26.2504 4.53145 27.0878 6.00754 27.4111" stroke="white" stroke-width="2" stroke-linecap="round" stroke-linejoin="round"/>
<path d="M11.0058 35.8086L17.004 41.8068L23.0022 35.8086" stroke="white" stroke-width="2" stroke-linecap="round" stroke-linejoin="round"/>
<path d="M17.0044 41.8066V23.812" stroke="white" stroke-width="2" stroke-linecap="round" stroke-linejoin="round"/>
<path d="M23.0026 29.8102L29.0007 23.812L34.9989 29.8102" stroke="white" stroke-width="2" stroke-linecap="round" stroke-linejoin="round"/>
<path d="M29.0009 23.812V41.8066" stroke="white" stroke-width="2" stroke-linecap="round" stroke-linejoin="round"/>
</svg>
