<svg width="44" height="41" viewBox="0 0 44 41" fill="none" xmlns="http://www.w3.org/2000/svg">
<path d="M34 31.3475H5.49316C5.49316 31.3475 7.679 26.9758 7.679 17.1395C7.679 10.582 13.4425 5.11743 20 5.11743" stroke="white" stroke-width="2" stroke-miterlimit="23.3333" stroke-linecap="round" stroke-linejoin="round"/>
<path d="M5.49316 31.3475H20.2476H35.002C35.002 31.3475 34.0005 29.3446 33.3533 25" stroke="white" stroke-width="2" stroke-miterlimit="23.3333" stroke-linecap="round" stroke-linejoin="round"/>
<path d="M25 35C25 37.7614 22.9853 40 20.5 40C18.0147 40 16 37.7614 16 35" stroke="white" stroke-width="2" stroke-linecap="round"/>
<rect x="19" width="3" height="6" rx="1.5" fill="white"/>
<path d="M29.8007 19.9714C30.1078 19.6637 30.4725 19.4196 30.8741 19.253C31.2757 19.0865 31.7061 19.0007 32.1409 19.0007C32.5756 19.0007 33.0061 19.0865 33.4076 19.253C33.8092 19.4196 34.1739 19.6637 34.481 19.9714" stroke="white" stroke-width="2" stroke-linecap="round" stroke-linejoin="round"/>
<path d="M38.3834 14.5849C36.7281 12.9301 34.4834 12.0005 32.1429 12.0005C29.8023 12.0005 27.5576 12.9301 25.9023 14.5849" stroke="white" stroke-width="2" stroke-linecap="round" stroke-linejoin="round"/>
<path d="M42.2817 9.20053C40.95 7.8688 39.369 6.81241 37.629 6.09168C35.8891 5.37095 34.0242 5 32.1408 5C30.2575 5 28.3926 5.37095 26.6526 6.09168C24.9127 6.81241 23.3317 7.8688 22 9.20053" stroke="white" stroke-width="2" stroke-linecap="round" stroke-linejoin="round"/>
</svg>
