<svg width="32" height="20" viewBox="0 0 32 20" fill="none" xmlns="http://www.w3.org/2000/svg">
<path d="M1 1H31V19H1V1Z" stroke="#1F1F1F" stroke-width="1.4" stroke-linecap="round" stroke-linejoin="round"/>
<path d="M19 5.5C19.0989 5.5 19.1956 5.52932 19.2778 5.58427C19.36 5.63921 19.4241 5.7173 19.4619 5.80866C19.4998 5.90002 19.5097 6.00056 19.4904 6.09755C19.4711 6.19454 19.4235 6.28363 19.3536 6.35355C19.2836 6.42348 19.1945 6.4711 19.0975 6.49039C19.0006 6.50968 18.9 6.49978 18.8087 6.46194C18.7173 6.4241 18.6392 6.36001 18.5843 6.27779C18.5293 6.19556 18.5 6.09889 18.5 6C18.5 5.86739 18.5527 5.74021 18.6464 5.64645C18.7402 5.55268 18.8674 5.5 19 5.5" stroke="#1F1F1F" stroke-width="1.4" stroke-linecap="round" stroke-linejoin="round"/>
<path d="M19 11.5C19.0989 11.5 19.1956 11.5293 19.2778 11.5843C19.36 11.6392 19.4241 11.7173 19.4619 11.8087C19.4998 11.9 19.5097 12.0006 19.4904 12.0975C19.4711 12.1945 19.4235 12.2836 19.3536 12.3536C19.2836 12.4235 19.1945 12.4711 19.0975 12.4904C19.0006 12.5097 18.9 12.4998 18.8087 12.4619C18.7173 12.4241 18.6392 12.36 18.5843 12.2778C18.5293 12.1956 18.5 12.0989 18.5 12C18.5 11.8674 18.5527 11.7402 18.6464 11.6464C18.7402 11.5527 18.8674 11.5 19 11.5" stroke="#1F1F1F" stroke-width="1.4" stroke-linecap="round" stroke-linejoin="round"/>
<path d="M14 5C13.2044 5 12.4413 5.31607 11.8787 5.87868C11.3161 6.44129 11 7.20435 11 8V11" stroke="#1F1F1F" stroke-width="1.4" stroke-linecap="round" stroke-linejoin="round"/>
<path d="M11 11C11 11.5304 11.2107 12.0391 11.5858 12.4142C11.9609 12.7893 12.4696 13 13 13C13.5304 13 14.0391 12.7893 14.4142 12.4142C14.7893 12.0391 15 11.5304 15 11C15 10.4696 14.7893 9.96086 14.4142 9.58579C14.0391 9.21071 13.5304 9 13 9C12.4696 9 11.9609 9.21071 11.5858 9.58579C11.2107 9.96086 11 10.4696 11 11V11Z" stroke="#1F1F1F" stroke-width="1.4" stroke-linecap="round" stroke-linejoin="round"/>
<path d="M5 5H6C6.26522 5 6.51957 5.10536 6.70711 5.29289C6.89464 5.48043 7 5.73478 7 6V13" stroke="#1F1F1F" stroke-width="1.4" stroke-linecap="round" stroke-linejoin="round"/>
<path d="M5 13H9" stroke="#1F1F1F" stroke-width="1.4" stroke-linecap="round" stroke-linejoin="round"/>
<path d="M27 7V10C27 10.7956 26.6839 11.5587 26.1213 12.1213C25.5587 12.6839 24.7956 13 24 13" stroke="#1F1F1F" stroke-width="1.4" stroke-linecap="round" stroke-linejoin="round"/>
<path d="M23 7C23 7.53043 23.2107 8.03914 23.5858 8.41421C23.9609 8.78929 24.4696 9 25 9C25.5304 9 26.0391 8.78929 26.4142 8.41421C26.7893 8.03914 27 7.53043 27 7C27 6.46957 26.7893 5.96086 26.4142 5.58579C26.0391 5.21071 25.5304 5 25 5C24.4696 5 23.9609 5.21071 23.5858 5.58579C23.2107 5.96086 23 6.46957 23 7Z" stroke="#1F1F1F" stroke-width="1.4" stroke-linecap="round" stroke-linejoin="round"/>
</svg>
