<svg xmlns="http://www.w3.org/2000/svg" width="31.4" height="19.4" viewBox="0 0 31.4 19.4">
  <g id="_6" data-name="6" transform="translate(-0.3 -0.3)">
    <path id="Path_1" data-name="Path 1" d="M1,1H31V19H1Z" fill="none" stroke="#fff" stroke-linecap="round" stroke-linejoin="round" stroke-width="1.4"/>
    <path id="Path_2" data-name="Path 2" d="M19,5.5a.5.5,0,1,1-.354.146A.5.5,0,0,1,19,5.5" fill="none" stroke="#fff" stroke-linecap="round" stroke-linejoin="round" stroke-width="1.4"/>
    <path id="Path_3" data-name="Path 3" d="M19,11.5a.5.5,0,1,1-.354.146A.5.5,0,0,1,19,11.5" fill="none" stroke="#fff" stroke-linecap="round" stroke-linejoin="round" stroke-width="1.4"/>
    <path id="Path_4" data-name="Path 4" d="M14,5a3,3,0,0,0-3,3v3" fill="none" stroke="#fff" stroke-linecap="round" stroke-linejoin="round" stroke-width="1.4"/>
    <path id="Path_5" data-name="Path 5" d="M11,11a2,2,0,1,0,.586-1.414A2,2,0,0,0,11,11Z" fill="none" stroke="#fff" stroke-linecap="round" stroke-linejoin="round" stroke-width="1.4"/>
    <path id="Path_6" data-name="Path 6" d="M5,5H6A1,1,0,0,1,7,6v7" fill="none" stroke="#fff" stroke-linecap="round" stroke-linejoin="round" stroke-width="1.4"/>
    <path id="Path_7" data-name="Path 7" d="M5,13H9" fill="none" stroke="#fff" stroke-linecap="round" stroke-linejoin="round" stroke-width="1.4"/>
    <path id="Path_8" data-name="Path 8" d="M27,7v3a3,3,0,0,1-3,3" fill="none" stroke="#fff" stroke-linecap="round" stroke-linejoin="round" stroke-width="1.4"/>
    <path id="Path_9" data-name="Path 9" d="M23,7a2,2,0,1,0,.586-1.414A2,2,0,0,0,23,7Z" fill="none" stroke="#fff" stroke-linecap="round" stroke-linejoin="round" stroke-width="1.4"/>
  </g>
</svg>
