<svg width="118" height="64" viewBox="0 0 118 64" fill="none" xmlns="http://www.w3.org/2000/svg">
<path fill-rule="evenodd" clip-rule="evenodd" d="M105.579 63.2661H66.7632V48.3712H82.2895L60.5526 25.2013L38.8158 48.3712H54.3421V63.2661H12.4211C5.56109 63.2661 0 57.3384 0 50.0262C0 42.714 5.56109 36.7863 12.4211 36.7863C13.0123 36.7863 13.5939 36.8303 14.1631 36.9154C15.6279 24.7073 25.4118 15.2714 37.2632 15.2714C40.0797 15.2714 42.7795 15.8043 45.2786 16.7808C51.0345 6.93152 61.2859 0.376465 72.9737 0.376465C90.9811 0.376465 105.579 15.9367 105.579 35.1313C105.579 35.6861 105.567 36.2379 105.543 36.7863C105.555 36.7863 105.567 36.7863 105.579 36.7863C112.439 36.7863 118 42.714 118 50.0262C118 57.3384 112.439 63.2661 105.579 63.2661Z" fill="#4E2FD2"/>
</svg>
