<svg width="253" height="55" viewBox="0 0 253 55" fill="none" xmlns="http://www.w3.org/2000/svg">
<path d="M84.0611 42.4965C89.5975 42.4965 94.4472 39.7068 96.9794 35.415L91.8721 32.4537C90.4559 35.0717 87.4945 36.7026 84.0611 36.7026C78.1813 36.7026 74.3187 32.6254 74.3187 26.8744C74.3187 21.0805 78.1813 17.0033 84.0611 17.0033C87.4945 17.0033 90.4129 18.6341 91.8721 21.2951L96.9794 18.3337C94.4043 14.0419 89.5546 11.2523 84.0611 11.2523C74.9625 11.2523 68.439 18.0762 68.439 26.8744C68.439 35.6296 74.9625 42.4965 84.0611 42.4965ZM116.795 20.4367V22.9689C115.25 21.0375 112.932 19.8359 109.799 19.8359C104.091 19.8359 99.37 24.7714 99.37 31.1662C99.37 37.5609 104.091 42.4965 109.799 42.4965C112.932 42.4965 115.25 41.2948 116.795 39.3635V41.8956H122.331V20.4367H116.795ZM110.829 37.2176C107.439 37.2176 104.906 34.7713 104.906 31.1662C104.906 27.5611 107.439 25.1147 110.829 25.1147C114.263 25.1147 116.795 27.5611 116.795 31.1662C116.795 34.7713 114.263 37.2176 110.829 37.2176ZM151.085 19.8359C148.167 19.8359 146.021 20.9946 144.69 22.9259C143.489 20.9517 141.514 19.8359 138.853 19.8359C136.107 19.8359 134.09 20.9088 132.888 22.7113V20.4367H127.351V41.8956H132.888V29.8357C132.888 26.6169 134.562 24.986 136.922 24.986C139.24 24.986 140.527 26.531 140.527 29.0632V41.8956H146.064V29.8357C146.064 26.6169 147.609 24.986 150.055 24.986C152.373 24.986 153.66 26.531 153.66 29.0632V41.8956H159.197V28.6769C159.197 23.3122 155.978 19.8359 151.085 19.8359Z" fill="#22262B"/>
<path d="M186.087 11.8531H174.886V41.8956H180.808V32.0245H186.087C191.881 32.0245 196.345 27.5611 196.345 21.9388C196.345 16.3166 191.881 11.8531 186.087 11.8531ZM186.087 26.4881H180.808V17.3895H186.087C188.619 17.3895 190.465 19.3208 190.465 21.9388C190.465 24.5139 188.619 26.4881 186.087 26.4881ZM199.943 41.8956H205.479V10.5656H199.943V41.8956ZM224.71 20.4367V32.0245C224.71 35.7584 222.692 37.3463 219.989 37.3463C217.499 37.3463 215.74 35.8442 215.74 32.9258V20.4367H210.203V33.6125C210.203 39.3206 213.766 42.4965 218.315 42.4965C221.19 42.4965 223.422 41.4235 224.71 39.4922V41.8956H230.246V20.4367H224.71ZM240.256 26.531C240.256 25.3723 241.372 24.7714 242.746 24.7714C244.333 24.7714 245.535 25.5868 246.179 26.9602L250.9 24.3851C249.226 21.4238 246.222 19.8359 242.746 19.8359C238.325 19.8359 234.591 22.2822 234.591 26.6598C234.591 34.2133 245.664 32.4966 245.664 35.6296C245.664 36.8742 244.462 37.4751 242.703 37.4751C240.557 37.4751 239.097 36.4451 238.497 34.6854L233.69 37.3893C235.235 40.6939 238.411 42.4965 242.703 42.4965C247.295 42.4965 251.329 40.2648 251.329 35.6296C251.329 27.7327 240.256 29.707 240.256 26.531Z" fill="#4E2FD2"/>
<path d="M48.1735 30.7387C48.1735 43.8527 37.5426 54.4837 24.4286 54.4837C11.3146 54.4837 0.683655 43.8527 0.683655 30.7387C0.683655 17.6247 11.3146 6.99377 24.4286 6.99377C37.5426 6.99377 48.1735 17.6247 48.1735 30.7387Z" fill="#E6EAFF"/>
<path d="M27.7923 49.2043C15.769 49.2043 6.02228 39.4575 6.02228 27.4343C6.02228 15.4111 15.769 5.66431 27.7923 5.66431" stroke="#4E2FD2" stroke-width="2.98041" stroke-linecap="round"/>
<path d="M20.3543 25.362C19.5313 25.362 18.8641 26.0292 18.8641 26.8522C18.8641 27.6752 19.5313 28.3424 20.3543 28.3424V25.362ZM48.9662 28.3424C49.7892 28.3424 50.4564 27.6752 50.4564 26.8522C50.4564 26.0292 49.7892 25.362 48.9662 25.362V28.3424ZM36.1505 12.8173C36.1505 11.9942 35.4833 11.3271 34.6603 11.3271C33.8372 11.3271 33.1701 11.9942 33.1701 12.8173L36.1505 12.8173ZM33.1701 41.4292C33.1701 42.2522 33.8372 42.9194 34.6603 42.9194C35.4833 42.9194 36.1505 42.2522 36.1505 41.4292H33.1701ZM20.3543 28.3424H34.6603V25.362H20.3543V28.3424ZM36.1505 26.8522V12.8173L33.1701 12.8173V26.8522L36.1505 26.8522ZM33.1701 26.8522L33.1701 41.4292H36.1505L36.1505 26.8522L33.1701 26.8522ZM34.6603 28.3424L42.1113 28.3424V25.362L34.6603 25.362V28.3424ZM42.1113 28.3424L48.9662 28.3424V25.362L42.1113 25.362V28.3424Z" fill="#4E2FD2"/>
</svg>
