<svg xmlns="http://www.w3.org/2000/svg" width="35.938" height="35.938" viewBox="0 0 35.938 35.938">
  <g id="Group_1_" data-name="Group (1)" transform="translate(-3.031 -3.031)">
    <path id="Path_70" data-name="Path 70" d="M23.777,38.223a17.445,17.445,0,1,0-20-14.445A17.445,17.445,0,0,0,23.777,38.223Z" fill="none" stroke="#fff" stroke-miterlimit="10" stroke-width="1"/>
    <path id="Path_71" data-name="Path 71" d="M22.984,21a1.9,1.9,0,1,1-1.9-1.9A1.852,1.852,0,0,1,22.984,21Z" fill="#fff"/>
    <path id="Path_72" data-name="Path 72" d="M21.086,21,26.6,11.052" fill="none" stroke="#fff" stroke-linecap="round" stroke-miterlimit="10" stroke-width="1"/>
    <path id="Path_73" data-name="Path 73" d="M21,5.99a14.927,14.927,0,0,0-13.469,8.5L13.313,17.2a8.564,8.564,0,0,1,7.774-4.881A8.665,8.665,0,0,1,28.86,17.2l5.785-2.712A15.406,15.406,0,0,0,21,5.99Z" fill="none" stroke="#fff" stroke-miterlimit="10" stroke-width="1"/>
  </g>
</svg>
