<svg xmlns="http://www.w3.org/2000/svg" width="46.373" height="51.143" viewBox="0 0 46.373 51.143">
  <g id="Group_7_" data-name="Group (7)" transform="translate(-0.5 -0.5)">
    <path id="Path_52" data-name="Path 52" d="M42.27,20.761V33.734q0,.6.4.6t.4-.6V20.56a.066.066,0,0,1-.067.067.726.726,0,0,1-.471.2C42.4,20.829,42.337,20.829,42.27,20.761Z" fill="none" stroke="#fff" stroke-linecap="round" stroke-linejoin="round" stroke-miterlimit="10" stroke-width="1"/>
    <path id="Path_53" data-name="Path 53" d="M32.388,34.473a1.7,1.7,0,0,0,1.68-1.613l.807-10.418.807,10.418a1.649,1.649,0,0,0,1.68,1.613,1.609,1.609,0,0,0,1.613-1.68l-.4-18.619.807.806,1.68,3.9a1.545,1.545,0,0,0,1.479.941,1.961,1.961,0,0,0,.6-.135,1.578,1.578,0,0,0,.806-2.084l-1.815-4.167a2.04,2.04,0,0,0-.336-.47l-2.42-2.42a4.315,4.315,0,0,0-3.092-1.277H33.262a5.243,5.243,0,0,0-2.958.874L26.271,12.7a1.583,1.583,0,0,0-.538,2.151l2.487,4.3a1.621,1.621,0,0,0,2.151.605,2.046,2.046,0,0,0,.538-.538L30.64,32.86A1.712,1.712,0,0,0,32.388,34.473Zm0,0ZM29.3,14.51l1.815-1.143-.067,4.1Z" fill="none" stroke="#fff" stroke-linecap="round" stroke-linejoin="round" stroke-miterlimit="10" stroke-width="1"/>
    <path id="Path_54" data-name="Path 54" d="M31.113,5.167a3.744,3.744,0,0,0,3.7,3.764,3.686,3.686,0,0,0,3.7-3.7,26.192,26.192,0,0,1-3.7.269A24.913,24.913,0,0,1,31.113,5.167Z" fill="none" stroke="#fff" stroke-linecap="round" stroke-linejoin="round" stroke-miterlimit="10" stroke-width="1"/>
    <path id="Path_55" data-name="Path 55" d="M34.81,5.436c2.89,0,5.176-.4,5.176-1.008,0-.336-.739-.6-1.815-.739l-.6-1.882A1.172,1.172,0,0,0,36.423,1H33.129a1.236,1.236,0,0,0-1.143.807l-.6,1.882c-1.008.134-1.68.471-1.68.739C29.7,5.033,31.986,5.436,34.81,5.436Z" fill="none" stroke="#fff" stroke-linecap="round" stroke-linejoin="round" stroke-miterlimit="10" stroke-width="1"/>
    <path id="Path_56" data-name="Path 56" d="M19.755,14.174a1.443,1.443,0,0,0-1.949.134L14.512,18.14a1.892,1.892,0,0,1-1.411.672H10.21A1.776,1.776,0,0,1,8.8,18.14L5.5,14.241a1.322,1.322,0,0,0-1.949-.134,1.323,1.323,0,0,0-.134,1.949L7.857,21.3V32.86a1.412,1.412,0,0,0,2.823,0V26.945H12.7V32.86a1.412,1.412,0,0,0,2.823,0V21.3l4.436-5.243A1.311,1.311,0,0,0,19.755,14.174Z" fill="none" stroke="#fff" stroke-linecap="round" stroke-linejoin="round" stroke-miterlimit="10" stroke-width="1"/>
    <path id="Path_57" data-name="Path 57" d="M11.619,18.745a3.361,3.361,0,1,0-3.361-3.361A3.361,3.361,0,0,0,11.619,18.745Z" fill="none" stroke="#fff" stroke-linecap="round" stroke-linejoin="round" stroke-miterlimit="10" stroke-width="1"/>
    <path id="Path_58" data-name="Path 58" d="M2.412,42.741a1.411,1.411,0,1,0,0,2.823H13.771a9.15,9.15,0,0,1-.134-1.411,10.03,10.03,0,0,1,.134-1.411Z" fill="none" stroke="#fff" stroke-linecap="round" stroke-linejoin="round" stroke-miterlimit="10" stroke-width="1"/>
    <path id="Path_59" data-name="Path 59" d="M45.9,43.144,40.458,37.7a1.378,1.378,0,0,0-1.949,1.949l3.025,3.025H31.652a9.138,9.138,0,0,1,.135,1.412,10.018,10.018,0,0,1-.135,1.412h9.881l-3.025,3.025a1.379,1.379,0,0,0,0,1.949,1.462,1.462,0,0,0,2.016,0l5.444-5.444a1.368,1.368,0,0,0,.4-1.008C46.373,43.615,46.1,43.413,45.9,43.144Z" fill="none" stroke="#fff" stroke-linecap="round" stroke-linejoin="round" stroke-miterlimit="10" stroke-width="1"/>
    <path id="Path_60" data-name="Path 60" d="M22.778,37.162a6.991,6.991,0,1,0,6.923,6.99A6.943,6.943,0,0,0,22.778,37.162Zm2.89,8.738a.979.979,0,0,1-.874.47,1.582,1.582,0,0,1-.538-.134l-2.084-1.277a.853.853,0,0,1-.47-.874V40.523a1.008,1.008,0,1,1,2.016,0V43.48l1.546.941A1.1,1.1,0,0,1,25.668,45.9Z" fill="none" stroke="#fff" stroke-linecap="round" stroke-linejoin="round" stroke-miterlimit="10" stroke-width="1"/>
  </g>
</svg>
