<svg xmlns="http://www.w3.org/2000/svg" width="39.219" height="39.429" viewBox="0 0 39.219 39.429">
  <g id="Group_8_" data-name="Group (8)" transform="translate(-0.971 -0.812)">
    <path id="Path_61" data-name="Path 61" d="M33.881,10.28a4.984,4.984,0,0,0,2.265-4.214A5.015,5.015,0,0,0,26.3,4.749L22.608,1.062h-7.8c-1.054,0-1.054,1.264,0,1.264h7.27l4.056,4.056A5.141,5.141,0,0,0,28.4,10.333a8.747,8.747,0,0,0-6.058,8.323v4.372a3.114,3.114,0,0,0,3.108,3.108h.632V37.094a2.833,2.833,0,0,0,2.845,2.845,2.881,2.881,0,0,0,2.212-1.054,2.881,2.881,0,0,0,2.212,1.054A2.833,2.833,0,0,0,36.2,37.094V26.137h.632a3.114,3.114,0,0,0,3.108-3.108V18.656A8.882,8.882,0,0,0,33.881,10.28ZM27.4,6.066a3.74,3.74,0,1,1,3.74,3.74A3.755,3.755,0,0,1,27.4,6.066ZM38.675,23.028a1.889,1.889,0,0,1-1.9,1.9h-.632V15.548c0-1.054-1.264-1.054-1.264,0v21.6a1.58,1.58,0,1,1-3.161,0V21.817a.633.633,0,1,0-1.264,0v15.33a1.58,1.58,0,1,1-3.161,0v-21.6c0-1.054-1.264-1.054-1.264,0v9.377H25.4a1.889,1.889,0,0,1-1.9-1.9V18.656a7.533,7.533,0,0,1,15.066,0v4.372Z" fill="#fff" stroke="#fff" stroke-linecap="round" stroke-linejoin="round" stroke-miterlimit="10" stroke-width="0.5"/>
    <path id="Path_62" data-name="Path 62" d="M11.124,32.142V26.137a2.529,2.529,0,0,0,2.528-2.529V17.392A6.262,6.262,0,0,0,9.86,11.65a4.372,4.372,0,1,0-4.846,0,6.262,6.262,0,0,0-3.793,5.742v6.269a2.529,2.529,0,0,0,2.529,2.529V37.778a2.226,2.226,0,0,0,2.212,2.213,2.19,2.19,0,0,0,1.58-.685,2.19,2.19,0,0,0,1.58.685,2.226,2.226,0,0,0,2.213-2.213V33.986l4-4h7.27a.633.633,0,1,0,0-1.264h-7.8ZM4.223,7.962A3.114,3.114,0,0,1,7.331,4.854a3.148,3.148,0,0,1,3.108,3.108,3.148,3.148,0,0,1-3.108,3.108A3.114,3.114,0,0,1,4.223,7.962ZM9.86,37.726a.948.948,0,0,1-1.9,0V21.764c0-1.106-1.264-1.106-1.264,0V37.726a.948.948,0,0,1-1.9,0V16.76c0-1.054-1.264-1.054-1.264,0v8.165a1.282,1.282,0,0,1-1.264-1.264V17.392a5,5,0,0,1,10.009,0v6.269a1.282,1.282,0,0,1-1.264,1.264V16.76c0-1.054-1.264-1.054-1.264,0Z" fill="#fff" stroke="#fff" stroke-linecap="round" stroke-linejoin="round" stroke-miterlimit="10" stroke-width="0.5"/>
    <path id="Path_63" data-name="Path 63" d="M22.4,31.141H21.133v1.264H22.4Z" fill="#fff" stroke="#fff" stroke-linecap="round" stroke-linejoin="round" stroke-miterlimit="10" stroke-width="0.5"/>
    <path id="Path_64" data-name="Path 64" d="M19.87,31.141h-5v1.264h5Z" fill="#fff" stroke="#fff" stroke-linecap="round" stroke-linejoin="round" stroke-miterlimit="10" stroke-width="0.5"/>
    <path id="Path_65" data-name="Path 65" d="M19.87,3.59h-5V4.854h5Z" fill="#fff" stroke="#fff" stroke-linecap="round" stroke-linejoin="round" stroke-miterlimit="10" stroke-width="0.5"/>
    <path id="Path_66" data-name="Path 66" d="M22.4,3.59H21.133V4.854H22.4Z" fill="#fff" stroke="#fff" stroke-linecap="round" stroke-linejoin="round" stroke-miterlimit="10" stroke-width="0.5"/>
  </g>
</svg>
