<svg width="80" height="80" viewBox="0 0 80 80" fill="none" xmlns="http://www.w3.org/2000/svg">
<path d="M43.9293 65.8572C48.3579 65.8572 52.7865 65.2143 55.2151 63.1429C55.5722 62.8572 55.6436 62.2857 55.2865 61.9286C55.0008 61.5714 54.4293 61.5 54.0722 61.8572C48.9293 66.2857 31.7151 62.9286 31.6436 62.9286L25.3579 60.8572L22.8579 60.2857C21.2865 59.9286 20.3579 59.2857 20.0722 58.3571C19.5722 57 20.7151 55.1429 21.1436 54.5714C21.2151 54.4286 21.2865 54.2857 21.3579 54.1429C21.3579 54.0714 22.2865 45.9286 22.9293 43.3572C24.5722 36.7143 28.7151 30.3571 30.4293 27.9286C31.5008 26.3571 35.5008 21.9286 35.5008 21.9286C35.6436 21.7857 39.1436 18.5 40.1436 17.1429C41.3579 15.5714 41.6436 15.6429 43.7151 16.3571L44.3579 16.5714C48.1436 17.7857 52.2151 19.9286 52.2865 19.9286C52.7865 20.2143 53.0722 20.5714 53.1436 21.0714C53.4293 22.7857 51.3579 25.3571 50.5722 26.2857C49.0008 28.2143 47.5722 29.2143 46.7151 28.9286C45.6436 28.6429 45.0722 26.5 44.9293 25.5714C44.9293 25.1429 44.9293 24.8571 44.9293 24.7857C45.1436 24.8571 45.6436 25.1429 45.9293 25.4286C46.2865 25.7143 46.8579 25.7143 47.1436 25.3571C47.4293 25 47.4293 24.4286 47.0722 24.1429C46.6436 23.7857 45.2865 22.6429 44.1436 23.2143C43.6436 23.4286 43.3579 23.9286 43.2151 24.6429L41.4293 23.7857C41.2151 23.6429 40.9293 23.7143 40.7151 23.7857C40.5008 23.9286 40.2865 24.0714 40.2151 24.3571C40.1436 24.6429 38.5722 30.8572 38.2151 33C38.0008 34.5 37.7151 37.1429 37.5008 39.4286C37.3579 41.2857 37.1436 43.0714 37.0722 43.7143L36.9293 44.5714C36.5008 45.0714 36.0008 45.6429 35.6436 46.2143C35.2865 46.9286 34.0008 48.8572 32.4293 49.6429C32.0008 49.8572 31.8579 50.3571 32.0722 50.7857C32.2151 51.0714 32.5008 51.2857 32.8579 51.2857C33.0008 51.2857 33.1436 51.2857 33.2865 51.2143C35.6436 50 37.1436 47.1429 37.1436 47.1429C38.6436 44.8571 40.6436 43.5 42.9293 43.0714C46.9293 42.4286 51.0008 44.8571 52.5008 45.8571C52.0008 46.7857 51.6436 47.7143 51.3579 48.7857C51.2151 49.2143 51.5008 49.7143 51.9293 49.8572C52.0008 49.8572 52.0722 49.8572 52.1436 49.8572C52.5008 49.8572 52.8579 49.5714 53.0008 49.2143C53.2865 48.0714 53.7865 47 54.3579 46C56.8579 41.7857 61.0722 41 61.1436 40.9286C61.6436 40.8571 61.9293 40.3572 61.8579 39.9286C61.7865 39.4286 61.3579 39.1429 60.8579 39.2143C60.6436 39.2857 56.4293 40.1429 53.4293 44.2857C51.7151 43.1429 47.2865 40.5714 42.7151 41.2857C41.3579 41.5 40.1436 42 39.0008 42.7857C39.0722 41.9286 39.2151 40.7857 39.2865 39.5714C39.5008 37.2857 39.7151 34.6429 40.0008 33.2857C40.2865 31.7143 41.2865 27.6429 41.7151 25.7857L43.4293 26.5714C43.7151 27.8572 44.5008 30 46.2865 30.5714C47.9293 31.0714 49.7865 30 51.9293 27.3571C52.2865 27 55.3579 23.5714 54.9293 20.7857C54.7865 19.7857 54.1436 18.9286 53.1436 18.3571C53.0008 18.2857 48.8579 16.1429 44.9293 14.8571L44.2865 14.7143C42.1436 14 40.7151 13.5 38.7865 16.1429C37.8579 17.3571 34.3579 20.7143 34.2865 20.7857C34.1436 21 30.1436 25.3571 29.0008 27C27.2865 29.5 23.0008 36.0714 21.2865 43C20.6436 45.5 19.8579 52.4286 19.7151 53.7857C19.2151 54.5 17.7151 56.8572 18.5008 59C19.0008 60.4286 20.3579 61.5 22.5008 62L25.0008 62.5L31.2865 64.5714C31.7151 64.6429 37.7865 65.8572 43.9293 65.8572Z" fill="white"/>
<path d="M50.3594 55.1429C50.2879 55.1429 42.1451 60.5 35.7165 54.2857C35.3594 53.9286 34.8594 53.9286 34.5022 54.2857C34.1451 54.6429 34.1451 55.1429 34.5022 55.5C37.2165 58.1429 40.2165 59 42.9308 59C47.5022 59 51.2165 56.5714 51.2879 56.5714C51.7165 56.2857 51.7879 55.7857 51.5022 55.3571C51.2879 54.9286 50.7879 54.8571 50.3594 55.1429Z" fill="white"/>
<path d="M49.0731 31.7143C48.5731 31.7143 48.216 32.0714 48.216 32.5714L48.1445 37.7857C48.1445 38.2857 48.5017 38.6429 49.0017 38.6429C49.5017 38.6429 49.8588 38.2857 49.8588 37.7857L49.9302 32.5714C49.9302 32.0714 49.5731 31.7143 49.0731 31.7143Z" fill="white"/>
<path d="M50.7857 38.9286C50.9285 39.1429 51.2142 39.2857 51.4285 39.2857C51.6428 39.2857 51.7857 39.2143 52 39.0714L56.4285 35.5C56.7857 35.2143 56.8571 34.6429 56.5714 34.2857C56.2857 33.9286 55.7142 33.8571 55.3571 34.1429L50.9285 37.7143C50.5714 38 50.5 38.5714 50.7857 38.9286Z" fill="white"/>
<path d="M42.4285 32.9286C42.0714 33.2143 42 33.7857 42.2857 34.1429L45.9285 38.7143C46.0714 38.9286 46.3571 39.0714 46.5714 39.0714C46.7857 39.0714 46.9285 39 47.1428 38.8571C47.5 38.5714 47.5714 38 47.2857 37.6429L43.6428 33.0714C43.3571 32.7143 42.7857 32.6429 42.4285 32.9286Z" fill="white"/>
</svg>
