<svg xmlns="http://www.w3.org/2000/svg" width="40.48" height="40.634" viewBox="0 0 40.48 40.634">
  <path id="Vector_1_" data-name="Vector (1)" d="M36.1,36.692a5.42,5.42,0,0,0,2.687-1.556,6.044,6.044,0,0,0-.212-8.556,6.212,6.212,0,0,0-6.717-1.343c-1.98-1.414-13.223-11.809-15.274-14.849A6.034,6.034,0,0,0,15.31,3.316a6.02,6.02,0,0,0-8.485-.141A5.291,5.291,0,0,0,5.34,5.933,5.419,5.419,0,0,0,2.653,7.488a6.044,6.044,0,0,0,.212,8.556,6.212,6.212,0,0,0,6.717,1.343C11.563,18.8,22.806,29.2,24.856,32.237a6.184,6.184,0,0,0,9.758,7.213A5.291,5.291,0,0,0,36.1,36.692Z" transform="translate(-0.48 -0.995)" fill="none" stroke="#fff" stroke-miterlimit="10" stroke-width="1"/>
</svg>
