<svg xmlns="http://www.w3.org/2000/svg" width="36.354" height="29.373" viewBox="0 0 36.354 29.373">
  <g id="Group_2_" data-name="Group (2)" transform="translate(-0.684 -0.438)">
    <path id="Path_74" data-name="Path 74" d="M18.884,27.536,8.9,18.018H6.209L18.234,29.532c.046.046.139.093.186.139.046,0,.046.046.093.046a.861.861,0,0,0,.325.093.672.672,0,0,0,.325-.093.162.162,0,0,0,.093-.046c.046-.046.139-.046.186-.139L31.466,18.018H28.773Z" fill="#fff"/>
    <path id="Path_75" data-name="Path 75" d="M5.094,13.7a7.4,7.4,0,0,1-.557-6.082,8.126,8.126,0,0,1,5.943-5.2c2.786-.557,5.525.557,7.707,3.064l.047.046a.045.045,0,0,0,.046.046.144.144,0,0,0,.093.046c.046.046.093.046.139.093.046,0,.093.046.186.046h.372a.351.351,0,0,0,.186-.046c.046,0,.093-.046.139-.093a.162.162,0,0,0,.093-.046l.046-.046a.045.045,0,0,0,.046-.046c3.621-4.132,7.939-3.621,10.539-1.9a7.594,7.594,0,0,1,2.739,9.843l-.139.279h2.043A9.408,9.408,0,0,0,31.14,2.046,9.545,9.545,0,0,0,18.883,3.532,9.582,9.582,0,0,0,10.108.607,9.943,9.943,0,0,0,2.726,7.014,9.25,9.25,0,0,0,3,13.7Z" fill="#fff"/>
    <path id="Path_76" data-name="Path 76" d="M36.109,15.046H23.248a1.034,1.034,0,0,0-.789.418l-1.439,2.321L19.3,13.654,17.444,9.2a.9.9,0,0,0-.789-.557,1.057,1.057,0,0,0-.882.464l-2.507,4.55-.743,1.393H1.612a.929.929,0,0,0,0,1.857H13.034a1.037,1.037,0,0,0,.836-.464L15.355,13.7l1.068-2,.836,2,1.811,4.318L20,20.246a.854.854,0,0,0,.789.557h.093a1.034,1.034,0,0,0,.789-.418l1.439-2.368.65-1.068h12.35a.931.931,0,0,0,.929-.929A.942.942,0,0,0,36.109,15.046Z" fill="#fff"/>
  </g>
</svg>
