<svg xmlns="http://www.w3.org/2000/svg" width="40.381" height="39.765" viewBox="0 0 40.381 39.765">
  <g id="icon_body_fat" transform="translate(-9.802 -9.667)">
    <path id="Path_67" data-name="Path 67" d="M30.107,21.862a5.848,5.848,0,1,0-5.946-5.847A5.9,5.9,0,0,0,30.107,21.862Z" fill="none" stroke="#fff" stroke-linecap="round" stroke-linejoin="round" stroke-miterlimit="10" stroke-width="1"/>
    <path id="Path_68" data-name="Path 68" d="M24.106,21.862H35.624a5.147,5.147,0,0,1,4.5,2.529l9.054,14.961c1.929,2.739-2.2,5.531-4.125,2.792L37.445,29.658V46.146c-5.3,3.793-10.179,3.635-14.786,0V29.763L15.106,42.248a2.542,2.542,0,1,1-4.339-2.634l8.839-15.171A5.086,5.086,0,0,1,24.106,21.862Z" fill="none" stroke="#fff" stroke-linecap="round" stroke-linejoin="round" stroke-miterlimit="10" stroke-width="1"/>
    <path id="Path_69" data-name="Path 69" d="M27.373,32.292a2.253,2.253,0,0,1-.857-.158,3.046,3.046,0,0,1-.7-.421,1.853,1.853,0,0,1-.429-.685,2.575,2.575,0,0,1,0-1.791,2.974,2.974,0,0,1,.429-.685,1.894,1.894,0,0,1,.7-.421,2.4,2.4,0,0,1,1.714,0,3.047,3.047,0,0,1,.7.421,1.854,1.854,0,0,1,.429.685,2.575,2.575,0,0,1,0,1.791,2.981,2.981,0,0,1-.429.685,1.9,1.9,0,0,1-.7.421A2.253,2.253,0,0,1,27.373,32.292Zm0-.579a1.954,1.954,0,0,0,.589-.105,1.267,1.267,0,0,0,.482-.316l.321-.474a1.919,1.919,0,0,0,0-1.264.767.767,0,0,0-.321-.474.781.781,0,0,0-.482-.316,1.7,1.7,0,0,0-1.179,0,1.266,1.266,0,0,0-.482.316l-.321.474a1.917,1.917,0,0,0,0,1.264.766.766,0,0,0,.321.474.781.781,0,0,0,.482.316A2.312,2.312,0,0,0,27.373,31.712Zm5.411-3.582h.7l-6.268,9.746h-.7Zm-.161,9.9a2.255,2.255,0,0,1-.857-.158,3.043,3.043,0,0,1-.7-.422,1.853,1.853,0,0,1-.429-.685,2.423,2.423,0,0,1-.161-.9,2.635,2.635,0,0,1,.161-.9,2.974,2.974,0,0,1,.429-.685,1.894,1.894,0,0,1,.7-.421,2.4,2.4,0,0,1,1.714,0,3.047,3.047,0,0,1,.7.421,1.854,1.854,0,0,1,.429.685,2.576,2.576,0,0,1,0,1.791,2.981,2.981,0,0,1-.429.685,1.9,1.9,0,0,1-.7.422A2.255,2.255,0,0,1,32.623,38.034Zm0-.632a1.954,1.954,0,0,0,.589-.105,1.267,1.267,0,0,0,.482-.316l.321-.474a1.919,1.919,0,0,0,0-1.264.767.767,0,0,0-.321-.474.781.781,0,0,0-.482-.316,1.7,1.7,0,0,0-1.179,0,1.266,1.266,0,0,0-.482.316l-.321.474a1.917,1.917,0,0,0,0,1.264.766.766,0,0,0,.321.474.781.781,0,0,0,.482.316A1.955,1.955,0,0,0,32.623,37.4Z" fill="#fff" stroke="#fff" stroke-linecap="round" stroke-linejoin="round" stroke-miterlimit="10" stroke-width="1"/>
  </g>
</svg>
