<svg xmlns="http://www.w3.org/2000/svg" width="41.374" height="41.478" viewBox="0 0 41.374 41.478">
  <g id="Group_5_" data-name="Group (5)" transform="translate(-0.725 -0.697)">
    <path id="Path_36" data-name="Path 36" d="M1,38.6s3.8-2.5,7.9-13.1C13.2,14.8,21.3,9,28.6,6.9S38.8,1,38.8,1" fill="none" stroke="#fff" stroke-miterlimit="10" stroke-width="1"/>
    <path id="Path_37" data-name="Path 37" d="M4.3,41.9S6.8,38.1,17.4,34C28,29.8,33.9,21.7,35.9,14.4S41.8,4.2,41.8,4.2" fill="none" stroke="#fff" stroke-miterlimit="10" stroke-width="1"/>
    <path id="Path_38" data-name="Path 38" d="M4.3,34.8a7.471,7.471,0,0,1,3.8,3.8" fill="none" stroke="#fff" stroke-miterlimit="10" stroke-width="1"/>
    <path id="Path_39" data-name="Path 39" d="M38.7,7.6a6.315,6.315,0,0,1-3.5-3.5" fill="none" stroke="#fff" stroke-miterlimit="10" stroke-width="1"/>
    <path id="Path_40" data-name="Path 40" d="M6.2,36s.7.4,5.1-7.8S23.8,13,29.6,11.2" fill="none" stroke="#fff" stroke-miterlimit="10" stroke-width="1"/>
    <path id="Path_41" data-name="Path 41" d="M15,19.3A26.783,26.783,0,0,1,26.2,10" fill="none" stroke="#fff" stroke-miterlimit="10" stroke-width="1"/>
    <path id="Path_42" data-name="Path 42" d="M28.5,9.3s6-2.7,7.5-3.6" fill="none" stroke="#fff" stroke-miterlimit="10" stroke-width="1"/>
    <path id="Path_43" data-name="Path 43" d="M37.4,7l-2.7,4.2" fill="none" stroke="#fff" stroke-miterlimit="10" stroke-width="1"/>
    <path id="Path_44" data-name="Path 44" d="M27.6,22.8a28.458,28.458,0,0,1-11.1,9" fill="none" stroke="#fff" stroke-miterlimit="10" stroke-width="1"/>
  </g>
</svg>
