<svg xmlns="http://www.w3.org/2000/svg" width="37.746" height="41.379" viewBox="0 0 37.746 41.379">
  <g id="Group_6_" data-name="Group (6)" transform="translate(-0.598 -0.653)">
    <path id="Path_45" data-name="Path 45" d="M32.567,18.234a.506.506,0,0,1-.474-.316,3.54,3.54,0,0,0-2.845-2.16.486.486,0,1,1,.211-.948,4.391,4.391,0,0,1,3.477,2.739.465.465,0,0,1-.263.632A.184.184,0,0,1,32.567,18.234Z" fill="#fff" stroke="#fff" stroke-miterlimit="10" stroke-width="0.5"/>
    <path id="Path_46" data-name="Path 46" d="M35.884,30.877a.521.521,0,0,1-.369-.9.554.554,0,0,1,.685,0,.478.478,0,0,1,.158.369.569.569,0,0,1-.158.369A.375.375,0,0,1,35.884,30.877Z" fill="#fff" stroke="#fff" stroke-miterlimit="10" stroke-width="1"/>
    <path id="Path_47" data-name="Path 47" d="M36.886,28.664a.194.194,0,0,1-.158-.053.538.538,0,0,1-.316-.632,17.119,17.119,0,0,0,.58-2.213,11.507,11.507,0,0,0-.105-4.846,12.806,12.806,0,0,0-2.845-5.32,16.4,16.4,0,0,0-3.055-2.371A12.349,12.349,0,0,0,28.3,12.018a9.787,9.787,0,0,0-1.9-.421,6.117,6.117,0,0,0-.685-.053.569.569,0,0,1-.369-.158.478.478,0,0,1-.158-.369V4.432a.474.474,0,0,1,.948,0v6.216a.668.668,0,0,1,.316.053,8.925,8.925,0,0,1,2.055.474,15.587,15.587,0,0,1,2.9,1.264,16.467,16.467,0,0,1,3.266,2.529,12.851,12.851,0,0,1,3.108,5.742,13.333,13.333,0,0,1,.105,5.215,19.718,19.718,0,0,1-.632,2.371A.4.4,0,0,1,36.886,28.664Z" fill="#fff" stroke="#fff" stroke-miterlimit="10" stroke-width="0.5"/>
    <path id="Path_48" data-name="Path 48" d="M6.859,41.781a.472.472,0,0,1-.474-.474V40.78a12.97,12.97,0,0,1,.105-1.37c.105-.685.263-1.317.421-2a19.254,19.254,0,0,1,.948-2.423.539.539,0,0,1,.316-.263.325.325,0,0,1,.369.053s.369.211,1,.527c.843.422,1.738.79,2.581,1.159,1.212.474,2.371.9,3.477,1.212a23.4,23.4,0,0,0,3.635.738s.685.053,1.686.053a19.1,19.1,0,0,0,4.214-.579,17.12,17.12,0,0,0,5.215-2.212,15.73,15.73,0,0,0,3.687-3.319.486.486,0,0,1,.737.632,16.567,16.567,0,0,1-3.9,3.529,18.678,18.678,0,0,1-5.531,2.371,20.315,20.315,0,0,1-4.425.579,11.226,11.226,0,0,1-1.844-.053,23.86,23.86,0,0,1-3.793-.738,32.9,32.9,0,0,1-3.582-1.264c-.9-.369-1.791-.738-2.634-1.159a5.112,5.112,0,0,0-.579-.263,19.047,19.047,0,0,0-.685,1.844c-.158.632-.316,1.264-.421,1.9a6.305,6.305,0,0,0-.105,1.264v.421C7.333,41.518,7.122,41.781,6.859,41.781Z" fill="#fff" stroke="#fff" stroke-miterlimit="10" stroke-width="0.5"/>
    <path id="Path_49" data-name="Path 49" d="M1.326,38.726a.472.472,0,0,1-.474-.474c0-.105-.421-9.324,9.9-14.487A16.252,16.252,0,0,0,19.711,8.594V1.377a.474.474,0,0,1,.948,0V8.541c0,.053.843,10.957-9.482,16.12C1.431,29.507,1.8,37.883,1.8,38.2a.436.436,0,0,1-.474.527Z" fill="#fff"/>
    <path id="Path_50" data-name="Path 50" d="M1.326,38.726a.472.472,0,0,1-.474-.474c0-.105-.421-9.324,9.9-14.487A16.252,16.252,0,0,0,19.711,8.594V1.377a.474.474,0,0,1,.948,0V8.541c0,.053.843,10.957-9.482,16.12C1.431,29.507,1.8,37.883,1.8,38.2A.436.436,0,0,1,1.326,38.726Zm0,0Z" fill="none" stroke="#fff" stroke-miterlimit="10" stroke-width="0.5"/>
    <path id="Path_51" data-name="Path 51" d="M21.448,34.2a13.433,13.433,0,0,1-2.107-.158,46.041,46.041,0,0,1-8.007-2.792.4.4,0,0,1-.263-.369.6.6,0,0,1,.158-.421,27.992,27.992,0,0,1,5.057-3.582,11.178,11.178,0,0,0,1.9-1.106c.105-.053.158-.105.263-.105H32.036a.353.353,0,0,1,.369.211.567.567,0,0,1,.105.421,9.424,9.424,0,0,1-1.633,3.424A11.647,11.647,0,0,1,21.448,34.2ZM12.44,30.666A35.591,35.591,0,0,0,19.5,33.037a10.687,10.687,0,0,0,1.9.158,10.47,10.47,0,0,0,8.639-4.056A8.664,8.664,0,0,0,31.3,26.663H18.551a20.918,20.918,0,0,1-1.844,1.053A21.279,21.279,0,0,0,12.44,30.666Z" fill="#fff" stroke="#fff" stroke-miterlimit="10" stroke-width="0.5"/>
  </g>
</svg>
