<svg xmlns="http://www.w3.org/2000/svg" width="29.664" height="38.796" viewBox="0 0 29.664 38.796">
  <path id="Vector_2_" data-name="Vector (2)" d="M20.982,11.516c-1.553-2.687-2.25-7.9-2.518-10.22a.341.341,0,0,0-.643-.105l-6.911,13.17a.35.35,0,0,1-.643-.105L9.143,9.093a.346.346,0,0,0-.589-.158C6.893,11.094,1,19.049,1,25.107A14.6,14.6,0,0,0,15.732,39.593c8.143,0,14.732-5.162,14.732-13.117C30.357,17.047,23.661,16.31,20.982,11.516Zm-10.018,21.6c0-3.74,2.143-6.9,3.964-8.955.053-.053.107,0,.107.053a5.554,5.554,0,0,0,.429,2.16A10.686,10.686,0,0,0,17.5,28.794c1.232,1.159,2.357,2.265,2.679,3.951a4.757,4.757,0,0,1-3.054,5.268C13.964,39.172,10.964,36.538,10.964,33.114Zm9.375,4.478c-.054,0-.107-.053-.054-.105a5.981,5.981,0,0,0,1.393-3.793c0-4.214-3.8-5.742-4.929-7.9-.536-1.054-.214-3.108.054-4.267a.329.329,0,0,0-.536-.316c-1.875,1.58-6.536,6.005-6.536,11.905a6.933,6.933,0,0,0,1.5,4.32c.054.053,0,.105-.053.053A13.149,13.149,0,0,1,2.339,25.16c0-4.53,3.7-10.43,6-13.591h.054l.857,3.9.589,2.687a.351.351,0,0,0,.643.105l1.286-2.476L17.554,4.826c.053-.053.161-.053.161,0a25.019,25.019,0,0,0,2.2,7.322,16.5,16.5,0,0,0,4.018,4.32c2.678,2.265,5.2,4.372,5.2,9.956C29.018,31.85,25.536,36.011,20.339,37.592Z" transform="translate(-0.9 -0.898)" fill="#fff" stroke="#fff" stroke-miterlimit="10" stroke-width="0.2"/>
</svg>
