<svg id="cash-user-message_2" data-name="cash-user-message 2" xmlns="http://www.w3.org/2000/svg" width="48" height="48.142" viewBox="0 0 48 48.142">
  <path id="Path_16" data-name="Path 16" d="M28.5,31.5v9l9-9h6a3,3,0,0,0,3-3V4.5a3,3,0,0,0-3-3h-24a3,3,0,0,0-3,3" fill="none" stroke="#fff" stroke-linecap="round" stroke-linejoin="round" stroke-width="3"/>
  <path id="Path_17" data-name="Path 17" d="M27,10l-3.68,1.3.56,1.96,2.82-.8V24H29V10Zm9.441,0-3.68,1.3.56,1.96,2.82-.8V24h2.3V10Z" fill="#fff"/>
  <path id="Path_18" data-name="Path 18" d="M12,21a6,6,0,1,0-6-6A6,6,0,0,0,12,21Z" fill="none" stroke="#fff" stroke-linecap="round" stroke-linejoin="round" stroke-width="3"/>
  <path id="Path_19" data-name="Path 19" d="M17.25,46.5,18,39h4.5V34.5a10.5,10.5,0,0,0-21,0V39H6l.75,7.5" fill="none" stroke="#fff" stroke-linecap="round" stroke-linejoin="round" stroke-width="3"/>
</svg>
