<svg xmlns="http://www.w3.org/2000/svg" width="48.431" height="48.414" viewBox="0 0 48.431 48.414">
  <g id="Group_2_" data-name="Group (2)" transform="translate(0.414)">
    <path id="Path_5" data-name="Path 5" d="M5,1V43H47" fill="none" stroke="#fff" stroke-linecap="round" stroke-linejoin="round" stroke-width="2"/>
    <path id="Path_6" data-name="Path 6" d="M17,33.008a4,4,0,1,0,1.172-2.828A4,4,0,0,0,17,33.008Z" fill="none" stroke="#fff" stroke-linecap="round" stroke-linejoin="round" stroke-width="2"/>
    <path id="Path_7" data-name="Path 7" d="M31,9.008A4,4,0,1,0,32.172,6.18,4,4,0,0,0,31,9.008Z" fill="none" stroke="#fff" stroke-linecap="round" stroke-linejoin="round" stroke-width="2"/>
    <path id="Path_8" data-name="Path 8" d="M38.045,6.416A14.026,14.026,0,0,1,47,3" fill="none" stroke="#fff" stroke-linecap="round" stroke-linejoin="round" stroke-width="2"/>
    <path id="Path_9" data-name="Path 9" d="M23.895,30.252A35.2,35.2,0,0,0,28,22a42.682,42.682,0,0,1,4.708-9.722" fill="none" stroke="#fff" stroke-linecap="round" stroke-linejoin="round" stroke-width="2"/>
    <path id="Path_10" data-name="Path 10" d="M5,43s6.128-.444,13.584-6.8" fill="none" stroke="#fff" stroke-linecap="round" stroke-linejoin="round" stroke-width="2"/>
    <path id="Path_11" data-name="Path 11" d="M1,5,5,1,9,5" fill="none" stroke="#fff" stroke-linecap="round" stroke-linejoin="round" stroke-width="2"/>
    <path id="Path_12" data-name="Path 12" d="M43,39l4,4-4,4" fill="none" stroke="#fff" stroke-linecap="round" stroke-linejoin="round" stroke-width="2"/>
  </g>
</svg>
