<svg xmlns="http://www.w3.org/2000/svg" xmlns:xlink="http://www.w3.org/1999/xlink" width="43" height="38" viewBox="0 0 43 38">
  <defs>
    <clipPath id="clip-path">
      <rect id="Rectangle_1" data-name="Rectangle 1" width="43" height="38" transform="translate(382 332)" fill="none" stroke="#707070" stroke-width="0.1"/>
    </clipPath>
  </defs>
  <g id="Mask_Group_1" data-name="Mask Group 1" transform="translate(-382 -332)" clip-path="url(#clip-path)">
    <g id="Group_2" data-name="Group 2" transform="translate(-382 -188)">
      <path id="Path_13" data-name="Path 13" d="M638.2-14192.5V9539.52M433.761,1543.15h0Zm.072-125.24h0Zm0-8.21h0Zm3.014-119.02h0Zm-3.086,661.03h0Zm-.116,125.24h0Zm0,8.22h0Zm3.071,119.08h0Zm405.616-661.1v0Zm125.229,3.06v0Zm8.214,5.22v0Zm119.085,0v0Zm-252.528-8.26v0Zm0,408.54-.115,125.24ZM433.718,1543.15v0Zm-125.171,3.12v0Zm-8.243,5.16v0Zm-119.073,0v0Zm252.53-8.26v0Zm0,408.54.116,125.24ZM-7266.56,1480.45h0Z" transform="translate(788 523)" fill="none" stroke="#ec008c" stroke-linecap="round" stroke-linejoin="round" stroke-width="0.28" stroke-dasharray="5.67 5.67"/>
      <path id="Path_20" data-name="Path 20" d="M21.854,35.477A15.446,15.446,0,1,0,6.408,20.031,15.446,15.446,0,0,0,21.854,35.477Zm0,2A17.451,17.451,0,0,0,37.93,26.819,5.847,5.847,0,0,0,43.208,21a6.68,6.68,0,0,0-1.314-4.121,4.8,4.8,0,0,0-3.321-1.849A17.453,17.453,0,0,0,5.14,15.012a4.525,4.525,0,0,0-3.453,1.9A6.973,6.973,0,0,0,.5,21a5.847,5.847,0,0,0,5.278,5.819A17.451,17.451,0,0,0,21.854,37.477ZM5.015,24.61a17.6,17.6,0,0,1-.364-7.495,2.507,2.507,0,0,0-1.345.969A5,5,0,0,0,2.5,21,3.848,3.848,0,0,0,5.015,24.61ZM41.208,21a3.848,3.848,0,0,1-2.515,3.61,17.6,17.6,0,0,0,.376-7.427,2.83,2.83,0,0,1,1.251.931A4.692,4.692,0,0,1,41.208,21Z" transform="translate(763.5 520.415)" fill="#fff" fill-rule="evenodd"/>
      <path id="Path_22" data-name="Path 22" d="M23.119.482a.727.727,0,0,1-.439.93A7.041,7.041,0,0,0,19.445,3.88a4.458,4.458,0,0,0-.89,3.59,3.258,3.258,0,0,0,2.737,2.654,3.888,3.888,0,0,0,3.363-1.011,1.988,1.988,0,0,0,.194-2.461,1.749,1.749,0,0,0-1.018-.728,2.64,2.64,0,0,0-1.741.225A.727.727,0,1,1,21.5,4.818a4.079,4.079,0,0,1,2.7-.3A3.2,3.2,0,0,1,26.055,5.84,3.441,3.441,0,0,1,25.72,10.1a5.334,5.334,0,0,1-4.665,1.456A4.708,4.708,0,0,1,17.139,7.8a5.9,5.9,0,0,1,1.124-4.766A8.493,8.493,0,0,1,22.19.043.727.727,0,0,1,23.119.482Z" transform="translate(763.5 520.415)" fill="#fff" fill-rule="evenodd"/>
      <circle id="Ellipse_1" data-name="Ellipse 1" cx="2.423" cy="2.423" r="2.423" transform="translate(790.525 535.923)" fill="#fff"/>
      <circle id="Ellipse_2" data-name="Ellipse 2" cx="2.423" cy="2.423" r="2.423" transform="translate(775.986 535.923)" fill="#fff"/>
      <path id="Path_23" data-name="Path 23" d="M26.2,22.608a5.371,5.371,0,0,0-2.854,0Zm-2.854,0A4.693,4.693,0,0,1,21,22.6a5.45,5.45,0,0,0-1.974-.148,5.348,5.348,0,0,0-1.89.568,4.986,4.986,0,0,0-1.521,1.212,4.592,4.592,0,0,0-.9,1.687h0v0a4.415,4.415,0,0,0,.04,2.546,4.693,4.693,0,0,0,1.434,2.142,5.231,5.231,0,0,0,2.376,1.144,5.463,5.463,0,0,0,2.659-.13h0l.01,0a3.136,3.136,0,0,1,1.894,0h0l.01,0a5.463,5.463,0,0,0,2.659.13,5.231,5.231,0,0,0,2.376-1.144A4.693,4.693,0,0,0,29.6,28.472a4.415,4.415,0,0,0,.041-2.543,4.606,4.606,0,0,0-1.261-2.094A5.117,5.117,0,0,0,26.2,22.608m-.453,1.635a3.675,3.675,0,0,0-1.955,0l-.013,0h0a6.39,6.39,0,0,1-3.209,0h0a3.751,3.751,0,0,0-1.36-.1,3.653,3.653,0,0,0-1.29.387,3.289,3.289,0,0,0-1,.8,2.9,2.9,0,0,0-.571,1.063,2.719,2.719,0,0,0,.025,1.569,3,3,0,0,0,.92,1.366,3.535,3.535,0,0,0,1.606.769,3.768,3.768,0,0,0,1.827-.088,4.833,4.833,0,0,1,2.913,0,3.768,3.768,0,0,0,1.827.088,3.536,3.536,0,0,0,1.606-.769,3,3,0,0,0,.92-1.366,2.719,2.719,0,0,0,.025-1.57l0-.006h0a2.91,2.91,0,0,0-.8-1.323,3.422,3.422,0,0,0-1.457-.818l.226-.817Z" transform="translate(763.5 520.415)" fill="#fff" fill-rule="evenodd"/>
      <path id="Path_24" data-name="Path 24" d="M22.178,26.749a.445.445,0,0,1,.3.114.373.373,0,0,1,.124.274" transform="translate(763.5 520.415)" fill="none" stroke="#fff" stroke-linecap="round" stroke-linejoin="round" stroke-width="3"/>
      <path id="Path_25" data-name="Path 25" d="M21.754,27.137a.373.373,0,0,1,.124-.274.445.445,0,0,1,.3-.114" transform="translate(763.5 520.415)" fill="none" stroke="#fff" stroke-linecap="round" stroke-linejoin="round" stroke-width="3"/>
      <path id="Path_26" data-name="Path 26" d="M22.178,27.523a.445.445,0,0,1-.3-.114.373.373,0,0,1-.124-.275" transform="translate(763.5 520.415)" fill="none" stroke="#fff" stroke-linecap="round" stroke-linejoin="round" stroke-width="3"/>
      <path id="Path_27" data-name="Path 27" d="M22.6,27.135a.373.373,0,0,1-.124.275.445.445,0,0,1-.3.114" transform="translate(763.5 520.415)" fill="none" stroke="#fff" stroke-linecap="round" stroke-linejoin="round" stroke-width="3"/>
    </g>
  </g>
</svg>
