<svg width="96" height="22" viewBox="0 0 96 22" fill="none" xmlns="http://www.w3.org/2000/svg">
<path fill-rule="evenodd" clip-rule="evenodd" d="M15.4552 1.15796H11.6509L15.4552 9.03164L12.1264 15.8632L4.9933 1.15796H1.18896L10.9376 21.4211H13.3153L17.3574 13.0843L21.3995 21.4211H23.7772L33.5258 1.15796H29.7215L22.5883 15.979L15.4552 1.15796Z" fill="black"/>
<path fill-rule="evenodd" clip-rule="evenodd" d="M51.5961 1.15796L45.0574 11.3474L38.5187 1.15796H34.4766L43.393 14.9369V21.3053H46.8407V14.9369L55.6382 1.15796H51.5961Z" fill="black"/>
<path fill-rule="evenodd" clip-rule="evenodd" d="M76.9188 21.4209H94.9894V17.9473H76.9188V21.4209Z" fill="black"/>
<path fill-rule="evenodd" clip-rule="evenodd" d="M76.9188 4.63164H94.9894V1.15796H76.9188V4.63164Z" fill="black"/>
<path fill-rule="evenodd" clip-rule="evenodd" d="M76.9188 12.9686H94.9894V9.49487H76.9188V12.9686Z" fill="black"/>
<path fill-rule="evenodd" clip-rule="evenodd" d="M56.7082 1.15796V4.51585H68.5967L55.2816 21.4211H74.6599V18.0632H62.4147L75.8487 1.15796H56.7082Z" fill="black"/>
</svg>
